<svg width="30" height="30" viewBox="0 0 30 30" fill="none" xmlns="http://www.w3.org/2000/svg">
<g clip-path="url(#clip0_400_223)">
<path d="M15 8.82661L13.1405 10.6581C14.986 10.8073 16.1884 11.3364 17.0972 12.2182C19.5439 14.5923 19.5298 17.9567 17.1112 20.3037L12.5393 24.7264C10.1066 27.0869 6.66725 27.1005 4.22055 24.74C1.77385 22.3522 1.78784 19.0149 4.22055 16.6544L6.96085 13.9954C6.56938 13.1407 6.47151 12.1232 6.6253 11.2415L2.51486 15.2164C-0.826631 18.4723 -0.854593 23.0849 2.52884 26.3679C5.92625 29.6645 10.6799 29.6373 14.0214 26.3951L18.8028 21.7418C22.1583 18.4858 22.1862 13.8733 18.7889 10.5902C17.908 9.73557 16.7895 9.12507 15 8.82661ZM14.6504 20.0053L16.51 18.1738C14.6645 18.0381 13.4621 17.4955 12.5533 16.6137C10.1066 14.2396 10.1205 10.8752 12.5393 8.52815L17.0972 4.10552C19.5439 1.74498 22.9832 1.73141 25.4299 4.10552C27.8766 6.47963 27.8487 9.83049 25.4299 12.1775L22.6896 14.8365C23.081 15.7047 23.1649 16.7087 23.0251 17.5904L27.1356 13.6155C30.4771 10.3596 30.5051 5.76062 27.1216 2.46399C23.7242 -0.832633 18.9706 -0.8055 15.6152 2.45043L10.8476 7.09011C7.49213 10.3461 7.46417 14.9586 10.8616 18.2417C11.7424 19.0963 12.8609 19.7068 14.6504 20.0053Z" fill="#A2A2A2"/>
</g>
<defs>
<clipPath id="clip0_400_223">
<rect width="30" height="29.0625" fill="white"/>
</clipPath>
</defs>
</svg>
