<svg width="164" height="24" viewBox="0 0 164 24" fill="none" xmlns="http://www.w3.org/2000/svg">
<path d="M30.2642 4.45455H34.0568L38.0625 14.2273H38.233L42.2386 4.45455H46.0312V19H43.0483V9.53267H42.9276L39.1634 18.929H37.1321L33.3679 9.49716H33.2472V19H30.2642V4.45455ZM47.7127 4.45455H51.1573L54.4741 10.7188H54.6161L57.9329 4.45455H61.3775L56.0721 13.858V19H53.0181V13.858L47.7127 4.45455ZM68.6839 19V4.45455H74.0107C75.0429 4.45455 75.8975 4.625 76.5746 4.96591C77.2517 5.30208 77.7583 5.759 78.0945 6.33665C78.4306 6.90956 78.5987 7.55587 78.5987 8.27557C78.5987 8.88163 78.4875 9.39299 78.2649 9.80966C78.0424 10.2216 77.7441 10.553 77.37 10.804C77.0007 11.0502 76.5935 11.2301 76.1484 11.3438V11.4858C76.6314 11.5095 77.1025 11.6657 77.5618 11.9545C78.0258 12.2386 78.4093 12.6435 78.7124 13.169C79.0154 13.6946 79.1669 14.3338 79.1669 15.0866C79.1669 15.83 78.9917 16.4976 78.6413 17.0895C78.2957 17.6766 77.7607 18.143 77.0362 18.4886C76.3118 18.8295 75.3861 19 74.2592 19H68.6839ZM70.8786 17.1179H74.0462C75.0973 17.1179 75.8501 16.9143 76.3047 16.5071C76.7592 16.0999 76.9865 15.5909 76.9865 14.9801C76.9865 14.5208 76.8705 14.0994 76.6385 13.7159C76.4065 13.3324 76.075 13.027 75.6442 12.7997C75.218 12.5724 74.7114 12.4588 74.1243 12.4588H70.8786V17.1179ZM70.8786 10.7472H73.8189C74.3113 10.7472 74.754 10.6525 75.147 10.4631C75.5447 10.2737 75.8596 10.0085 76.0916 9.66761C76.3284 9.32197 76.4467 8.91477 76.4467 8.44602C76.4467 7.8447 76.236 7.34044 75.8146 6.93324C75.3932 6.52604 74.7469 6.32244 73.8757 6.32244H70.8786V10.7472ZM86.1946 19.2202C85.1719 19.2202 84.2794 18.9858 83.517 18.517C82.7547 18.0483 82.1629 17.3925 81.7415 16.5497C81.3201 15.7069 81.1094 14.7221 81.1094 13.5952C81.1094 12.4635 81.3201 11.474 81.7415 10.6264C82.1629 9.77888 82.7547 9.12074 83.517 8.65199C84.2794 8.18324 85.1719 7.94886 86.1946 7.94886C87.2173 7.94886 88.1098 8.18324 88.8722 8.65199C89.6345 9.12074 90.2263 9.77888 90.6477 10.6264C91.0691 11.474 91.2798 12.4635 91.2798 13.5952C91.2798 14.7221 91.0691 15.7069 90.6477 16.5497C90.2263 17.3925 89.6345 18.0483 88.8722 18.517C88.1098 18.9858 87.2173 19.2202 86.1946 19.2202ZM86.2017 17.4375C86.8646 17.4375 87.4138 17.2623 87.8494 16.9119C88.285 16.5616 88.607 16.0952 88.8153 15.5128C89.0284 14.9304 89.1349 14.2888 89.1349 13.5881C89.1349 12.892 89.0284 12.2528 88.8153 11.6705C88.607 11.0833 88.285 10.6122 87.8494 10.2571C87.4138 9.90199 86.8646 9.72443 86.2017 9.72443C85.5341 9.72443 84.9801 9.90199 84.5398 10.2571C84.1042 10.6122 83.7798 11.0833 83.5668 11.6705C83.3584 12.2528 83.2543 12.892 83.2543 13.5881C83.2543 14.2888 83.3584 14.9304 83.5668 15.5128C83.7798 16.0952 84.1042 16.5616 84.5398 16.9119C84.9801 17.2623 85.5341 17.4375 86.2017 17.4375ZM98.2454 19.2202C97.2227 19.2202 96.3301 18.9858 95.5678 18.517C94.8055 18.0483 94.2137 17.3925 93.7923 16.5497C93.3709 15.7069 93.1602 14.7221 93.1602 13.5952C93.1602 12.4635 93.3709 11.474 93.7923 10.6264C94.2137 9.77888 94.8055 9.12074 95.5678 8.65199C96.3301 8.18324 97.2227 7.94886 98.2454 7.94886C99.2681 7.94886 100.161 8.18324 100.923 8.65199C101.685 9.12074 102.277 9.77888 102.699 10.6264C103.12 11.474 103.331 12.4635 103.331 13.5952C103.331 14.7221 103.12 15.7069 102.699 16.5497C102.277 17.3925 101.685 18.0483 100.923 18.517C100.161 18.9858 99.2681 19.2202 98.2454 19.2202ZM98.2525 17.4375C98.9154 17.4375 99.4646 17.2623 99.9002 16.9119C100.336 16.5616 100.658 16.0952 100.866 15.5128C101.079 14.9304 101.186 14.2888 101.186 13.5881C101.186 12.892 101.079 12.2528 100.866 11.6705C100.658 11.0833 100.336 10.6122 99.9002 10.2571C99.4646 9.90199 98.9154 9.72443 98.2525 9.72443C97.5849 9.72443 97.0309 9.90199 96.5906 10.2571C96.1549 10.6122 95.8306 11.0833 95.6175 11.6705C95.4092 12.2528 95.305 12.892 95.305 13.5881C95.305 14.2888 95.4092 14.9304 95.6175 15.5128C95.8306 16.0952 96.1549 16.5616 96.5906 16.9119C97.0309 17.2623 97.5849 17.4375 98.2525 17.4375ZM107.654 15.2997L107.64 12.7074H108.009L112.356 8.09091H114.898L109.941 13.3466H109.607L107.654 15.2997ZM105.701 19V4.45455H107.825V19H105.701ZM112.59 19L108.684 13.8153L110.147 12.331L115.197 19H112.59ZM129.085 9.18466H126.869C126.784 8.71117 126.625 8.29451 126.393 7.93466C126.161 7.57481 125.877 7.26941 125.541 7.01847C125.205 6.76752 124.829 6.57812 124.412 6.45028C124 6.32244 123.562 6.25852 123.098 6.25852C122.26 6.25852 121.509 6.46922 120.847 6.89062C120.188 7.31203 119.668 7.92992 119.284 8.74432C118.905 9.55871 118.716 10.553 118.716 11.7273C118.716 12.911 118.905 13.91 119.284 14.7244C119.668 15.5388 120.191 16.1544 120.854 16.571C121.517 16.9877 122.262 17.196 123.091 17.196C123.55 17.196 123.986 17.1345 124.398 17.0114C124.814 16.8835 125.191 16.6965 125.527 16.4503C125.863 16.2041 126.147 15.9034 126.379 15.5483C126.616 15.1884 126.779 14.7765 126.869 14.3125L129.085 14.3196C128.967 15.0346 128.737 15.6927 128.396 16.294C128.06 16.8906 127.627 17.4067 127.097 17.8423C126.571 18.2732 125.97 18.607 125.293 18.8438C124.616 19.0805 123.877 19.1989 123.077 19.1989C121.817 19.1989 120.695 18.9006 119.71 18.304C118.725 17.7027 117.949 16.8433 117.381 15.7259C116.817 14.6084 116.536 13.2756 116.536 11.7273C116.536 10.1742 116.82 8.84138 117.388 7.72869C117.956 6.61127 118.732 5.75426 119.717 5.15767C120.702 4.55634 121.822 4.25568 123.077 4.25568C123.848 4.25568 124.568 4.36695 125.236 4.58949C125.908 4.80729 126.512 5.12926 127.047 5.5554C127.582 5.9768 128.025 6.4929 128.375 7.10369C128.725 7.70975 128.962 8.40341 129.085 9.18466ZM134.716 19.2415C134.024 19.2415 133.399 19.1136 132.841 18.858C132.282 18.5975 131.839 18.2211 131.512 17.7287C131.19 17.2363 131.029 16.6326 131.029 15.9176C131.029 15.3021 131.148 14.7955 131.385 14.3977C131.621 14 131.941 13.6851 132.343 13.4531C132.746 13.2211 133.196 13.0459 133.693 12.9276C134.19 12.8092 134.697 12.7192 135.213 12.6577C135.866 12.5819 136.396 12.5204 136.804 12.473C137.211 12.4209 137.507 12.3381 137.691 12.2244C137.876 12.1108 137.968 11.9261 137.968 11.6705V11.6207C137.968 11.0005 137.793 10.5199 137.443 10.179C137.097 9.83807 136.581 9.66761 135.895 9.66761C135.18 9.66761 134.616 9.82623 134.204 10.1435C133.797 10.456 133.515 10.804 133.359 11.1875L131.363 10.733C131.6 10.0701 131.946 9.53504 132.4 9.12784C132.859 8.71591 133.387 8.41761 133.984 8.23295C134.581 8.04356 135.208 7.94886 135.866 7.94886C136.302 7.94886 136.763 8.00095 137.251 8.10511C137.743 8.20455 138.203 8.3892 138.629 8.65909C139.06 8.92898 139.413 9.31487 139.687 9.81676C139.962 10.3139 140.099 10.9602 140.099 11.7557V19H138.025V17.5085H137.94C137.803 17.7831 137.597 18.053 137.322 18.3182C137.047 18.5833 136.695 18.8035 136.264 18.9787C135.833 19.1539 135.317 19.2415 134.716 19.2415ZM135.177 17.5369C135.764 17.5369 136.266 17.4209 136.683 17.1889C137.104 16.9569 137.424 16.6539 137.642 16.2798C137.864 15.901 137.975 15.4962 137.975 15.0653V13.6591C137.9 13.7348 137.753 13.8059 137.535 13.8722C137.322 13.9337 137.078 13.9882 136.804 14.0355C136.529 14.0781 136.261 14.1184 136.001 14.1562C135.741 14.1894 135.523 14.2178 135.348 14.2415C134.936 14.2936 134.559 14.3812 134.218 14.5043C133.882 14.6274 133.612 14.8049 133.409 15.0369C133.21 15.2642 133.11 15.5672 133.11 15.946C133.11 16.4716 133.305 16.8693 133.693 17.1392C134.081 17.4044 134.576 17.5369 135.177 17.5369ZM151.102 10.7543L149.178 11.0952C149.097 10.849 148.969 10.6146 148.794 10.392C148.624 10.1695 148.392 9.98722 148.098 9.84517C147.804 9.70312 147.438 9.6321 146.997 9.6321C146.396 9.6321 145.894 9.76705 145.491 10.0369C145.089 10.3021 144.888 10.6454 144.888 11.0668C144.888 11.4313 145.023 11.7249 145.293 11.9474C145.563 12.17 145.998 12.3523 146.599 12.4943L148.332 12.892C149.336 13.1241 150.084 13.4815 150.577 13.9645C151.069 14.4474 151.315 15.0748 151.315 15.8466C151.315 16.5 151.126 17.0824 150.747 17.5938C150.373 18.1004 149.85 18.4981 149.178 18.7869C148.51 19.0758 147.736 19.2202 146.855 19.2202C145.634 19.2202 144.637 18.9598 143.865 18.4389C143.093 17.9134 142.62 17.1676 142.445 16.2017L144.497 15.8892C144.625 16.4242 144.888 16.8291 145.286 17.1037C145.683 17.3736 146.202 17.5085 146.841 17.5085C147.537 17.5085 148.093 17.3641 148.51 17.0753C148.927 16.7817 149.135 16.4242 149.135 16.0028C149.135 15.6619 149.007 15.3755 148.751 15.1435C148.5 14.9115 148.115 14.7363 147.594 14.6179L145.747 14.2131C144.729 13.9811 143.976 13.6117 143.489 13.1051C143.006 12.5985 142.764 11.9569 142.764 11.1804C142.764 10.5365 142.944 9.97301 143.304 9.49006C143.664 9.0071 144.161 8.63068 144.795 8.3608C145.43 8.08617 146.157 7.94886 146.976 7.94886C148.155 7.94886 149.083 8.20455 149.76 8.71591C150.437 9.22254 150.884 9.90199 151.102 10.7543ZM158.352 19.2202C157.277 19.2202 156.351 18.9905 155.575 18.5312C154.803 18.0672 154.207 17.4162 153.785 16.5781C153.368 15.7353 153.16 14.7481 153.16 13.6165C153.16 12.4991 153.368 11.5142 153.785 10.6619C154.207 9.80966 154.794 9.14441 155.547 8.66619C156.304 8.18797 157.19 7.94886 158.203 7.94886C158.818 7.94886 159.415 8.05066 159.993 8.25426C160.57 8.45786 161.089 8.77746 161.548 9.21307C162.007 9.64867 162.369 10.2145 162.635 10.9105C162.9 11.6018 163.032 12.4422 163.032 13.4318V14.1847H154.36V12.5938H160.951C160.951 12.035 160.838 11.5402 160.61 11.1094C160.383 10.6738 160.064 10.3305 159.652 10.0795C159.244 9.8286 158.766 9.70312 158.217 9.70312C157.62 9.70312 157.1 9.84991 156.654 10.1435C156.214 10.4323 155.873 10.8111 155.632 11.2798C155.395 11.7438 155.277 12.2481 155.277 12.7926V14.0355C155.277 14.7647 155.404 15.3849 155.66 15.8963C155.921 16.4077 156.283 16.7983 156.747 17.0682C157.211 17.3333 157.753 17.4659 158.373 17.4659C158.776 17.4659 159.143 17.4091 159.474 17.2955C159.806 17.1771 160.092 17.0019 160.333 16.7699C160.575 16.5379 160.76 16.2514 160.887 15.9105L162.897 16.2727C162.736 16.8646 162.448 17.383 162.031 17.8281C161.619 18.2685 161.1 18.6117 160.475 18.858C159.855 19.0994 159.147 19.2202 158.352 19.2202Z" fill="white"/>
<path d="M1.49104 19.6424H3.78214C4.7398 19.6424 5.27317 19.2633 5.27317 18.6062V4.37804C5.27317 3.71254 4.7398 3.33346 3.78214 3.33346H1.49104C0.521256 3.33346 0 3.71254 0 4.37804V18.6062C0 19.2633 0.521256 19.6424 1.49104 19.6424ZM8.18252 19.6424H13.092C14.0618 19.6424 14.5831 19.2633 14.5831 18.6062V7.25062C14.5831 6.59356 14.0618 6.21448 13.092 6.21448H8.18252C7.21273 6.21448 6.67936 6.59356 6.67936 7.25062V18.6062C6.67936 19.2633 7.21273 19.6424 8.18252 19.6424ZM9.33413 9.22188C8.89776 9.22188 8.57039 8.99444 8.57039 8.69959C8.57039 8.41314 8.89776 8.1857 9.33413 8.1857H11.9646C12.3889 8.1857 12.7041 8.41314 12.7041 8.69959C12.7041 8.99444 12.3889 9.22188 11.9646 9.22188H9.33413ZM9.33413 17.6796C8.89776 17.6796 8.57039 17.4522 8.57039 17.1573C8.57039 16.8709 8.89776 16.6434 9.33413 16.6434H11.9646C12.3889 16.6434 12.7041 16.8709 12.7041 17.1573C12.7041 17.4522 12.3889 17.6796 11.9646 17.6796H9.33413ZM17.4924 19.6424H20.4866C21.4563 19.6424 21.9776 19.2633 21.9776 18.6062V2.04458C21.9776 1.37908 21.4563 1 20.4866 1H17.4924C16.5226 1 16.0013 1.37908 16.0013 2.04458V18.6062C16.0013 19.2633 16.5226 19.6424 17.4924 19.6424ZM25.7355 19.6845L27.6872 19.4908C28.6327 19.4065 29.0933 19.0022 28.9843 18.3367L26.669 4.3612C26.5598 3.70412 25.99 3.35873 25.0203 3.4514L23.0807 3.64515C22.1231 3.72939 21.6625 4.13374 21.7715 4.79082L24.099 18.7663C24.2081 19.4234 24.7779 19.7688 25.7355 19.6845Z" fill="white"/>
</svg>
