<svg width="62" height="41" viewBox="0 0 62 41" fill="none" xmlns="http://www.w3.org/2000/svg">
<path d="M30.2642 4.45455H34.0568L38.0625 14.2273H38.233L42.2386 4.45455H46.0312V19H43.0483V9.53267H42.9276L39.1634 18.929H37.1321L33.3679 9.49716H33.2472V19H30.2642V4.45455ZM47.7127 4.45455H51.1573L54.4741 10.7188H54.6161L57.9329 4.45455H61.3775L56.0721 13.858V19H53.0181V13.858L47.7127 4.45455Z" fill="white"/>
<path d="M1.49104 19.5721H3.78214C4.7398 19.5721 5.27317 19.193 5.27317 18.5359V4.30773C5.27317 3.64223 4.7398 3.26315 3.78214 3.26315H1.49104C0.521256 3.26315 0 3.64223 0 4.30773V18.5359C0 19.193 0.521256 19.5721 1.49104 19.5721ZM8.18252 19.5721H13.092C14.0618 19.5721 14.5831 19.193 14.5831 18.5359V7.1803C14.5831 6.52325 14.0618 6.14417 13.092 6.14417H8.18252C7.21273 6.14417 6.67936 6.52325 6.67936 7.1803V18.5359C6.67936 19.193 7.21273 19.5721 8.18252 19.5721ZM9.33413 9.15157C8.89776 9.15157 8.57039 8.92412 8.57039 8.62928C8.57039 8.34283 8.89776 8.11539 9.33413 8.11539H11.9646C12.3889 8.11539 12.7041 8.34283 12.7041 8.62928C12.7041 8.92412 12.3889 9.15157 11.9646 9.15157H9.33413ZM9.33413 17.6093C8.89776 17.6093 8.57039 17.3818 8.57039 17.087C8.57039 16.8006 8.89776 16.5731 9.33413 16.5731H11.9646C12.3889 16.5731 12.7041 16.8006 12.7041 17.087C12.7041 17.3818 12.3889 17.6093 11.9646 17.6093H9.33413ZM17.4924 19.5721H20.4866C21.4563 19.5721 21.9776 19.193 21.9776 18.5359V1.97427C21.9776 1.30877 21.4563 0.929688 20.4866 0.929688H17.4924C16.5226 0.929688 16.0013 1.30877 16.0013 1.97427V18.5359C16.0013 19.193 16.5226 19.5721 17.4924 19.5721ZM25.7355 19.6142L27.6872 19.4205C28.6327 19.3362 29.0933 18.9319 28.9843 18.2664L26.669 4.29088C26.5598 3.63381 25.99 3.28842 25.0203 3.38109L23.0807 3.57484C22.1231 3.65908 21.6625 4.06343 21.7715 4.72051L24.099 18.696C24.2081 19.3531 24.7779 19.6984 25.7355 19.6142Z" fill="white"/>
<path d="M20.304 26.436H21.424V39.092H20.304V26.436ZM18.176 31.588H20.612V32.54H18.176V31.588ZM17.434 26.716H18.526V38.448H17.434V26.716ZM11.302 27.962H12.464V35.27H11.302V27.962ZM11.302 34.808H12.114C13.416 34.808 14.872 34.724 16.524 34.402L16.65 35.41C14.928 35.746 13.472 35.816 12.114 35.816H11.302V34.808ZM33.8304 30.72H37.3584V31.672H33.8304V30.72ZM30.7784 27.528H31.7304V29.782C31.7304 32.624 30.2324 35.34 28.2304 36.418L27.4884 35.494C29.3504 34.57 30.7784 32.134 30.7784 29.782V27.528ZM31.0024 27.528H31.9404V29.782C31.9404 32.092 33.3684 34.388 35.2024 35.256L34.5164 36.194C32.4724 35.158 31.0024 32.554 31.0024 29.782V27.528ZM36.7844 26.422H37.9324V39.106H36.7844V26.422ZM50.0693 26.436H51.1753V39.092H50.0693V26.436ZM48.0673 31.532H50.5033V32.512H48.0673V31.532ZM47.3113 26.702H48.4033V38.462H47.3113V26.702ZM42.9993 28.396H43.9093V29.852C43.9093 32.89 42.9153 35.326 40.9693 36.488L40.2553 35.592C42.0753 34.584 42.9993 32.428 42.9993 29.852V28.396ZM43.2093 28.396H44.1193V29.852C44.1193 32.176 45.0573 34.234 46.8353 35.144L46.1493 36.04C44.2173 34.976 43.2093 32.638 43.2093 29.852V28.396ZM40.5493 27.92H46.4293V28.886H40.5493V27.92Z" fill="#C5C5C5"/>
</svg>
