<svg width="27" height="27" viewBox="0 0 27 27" fill="none" xmlns="http://www.w3.org/2000/svg">
<mask id="mask0_334_7" style="mask-type:alpha" maskUnits="userSpaceOnUse" x="0" y="0" width="27" height="27">
<rect width="27" height="27" fill="#D9D9D9"/>
</mask>
<g mask="url(#mask0_334_7)">
<path d="M15.75 14.625C14.8125 14.625 14.0156 14.2969 13.3594 13.6406C12.7031 12.9844 12.375 12.1875 12.375 11.25C12.375 10.3125 12.7031 9.51563 13.3594 8.85938C14.0156 8.20312 14.8125 7.875 15.75 7.875C16.6875 7.875 17.4844 8.20312 18.1406 8.85938C18.7969 9.51563 19.125 10.3125 19.125 11.25C19.125 12.1875 18.7969 12.9844 18.1406 13.6406C17.4844 14.2969 16.6875 14.625 15.75 14.625ZM7.875 18C7.25625 18 6.72656 17.7797 6.28594 17.3391C5.84531 16.8984 5.625 16.3688 5.625 15.75V6.75C5.625 6.13125 5.84531 5.60156 6.28594 5.16094C6.72656 4.72031 7.25625 4.5 7.875 4.5H23.625C24.2438 4.5 24.7734 4.72031 25.2141 5.16094C25.6547 5.60156 25.875 6.13125 25.875 6.75V15.75C25.875 16.3688 25.6547 16.8984 25.2141 17.3391C24.7734 17.7797 24.2438 18 23.625 18H7.875ZM10.125 15.75H21.375C21.375 15.1312 21.5953 14.6016 22.0359 14.1609C22.4766 13.7203 23.0062 13.5 23.625 13.5V9C23.0062 9 22.4766 8.77969 22.0359 8.33906C21.5953 7.89844 21.375 7.36875 21.375 6.75H10.125C10.125 7.36875 9.90469 7.89844 9.46406 8.33906C9.02344 8.77969 8.49375 9 7.875 9V13.5C8.49375 13.5 9.02344 13.7203 9.46406 14.1609C9.90469 14.6016 10.125 15.1312 10.125 15.75ZM22.5 22.5H3.375C2.75625 22.5 2.22656 22.2797 1.78594 21.8391C1.34531 21.3984 1.125 20.8688 1.125 20.25V7.875H3.375V20.25H22.5V22.5Z" fill="#1C1B1F"/>
</g>
</svg>
