<svg width="13" height="16" viewBox="0 0 13 16" fill="none" xmlns="http://www.w3.org/2000/svg">
<path d="M0 9.00793C0 12.496 2.85826 15.295 6.41294 15.295C9.96766 15.295 12.8186 12.496 12.8186 9.00793C12.8186 5.52696 9.96766 2.73506 6.41294 2.73506C5.96316 2.73506 5.53518 2.78479 5.1579 2.85583L7.0876 0.987462C7.1964 0.8738 7.24721 0.731718 7.24721 0.582532C7.24721 0.255746 7.00054 0 6.68136 0C6.5 0 6.35489 0.0568327 6.25337 0.170497L3.26451 3.13999C3.14844 3.25366 3.08315 3.40995 3.08315 3.56624C3.08315 3.72963 3.14118 3.87171 3.26451 3.99248L6.25337 6.93357C6.36217 7.04012 6.5 7.09696 6.67413 7.09696C7.00054 7.09696 7.24721 6.85539 7.24721 6.52862C7.24721 6.37944 7.1964 6.23735 7.08037 6.12372L4.91853 4.0209C5.33926 3.92144 5.85436 3.87882 6.41294 3.87882C9.32197 3.87882 11.6507 6.15922 11.6507 9.00793C11.6507 11.8638 9.32197 14.1513 6.41294 14.1513C3.50391 14.1513 1.16797 11.8638 1.16797 9.00793C1.16797 8.66695 0.950337 8.41831 0.60212 8.41831C0.246652 8.41831 0 8.66695 0 9.00793Z" fill="#6E6E73" fill-opacity="0.8"/>
</svg>
