<svg width="18" height="18" viewBox="0 0 18 18" fill="none" xmlns="http://www.w3.org/2000/svg">
<path d="M11.8673 12.8389L11.5671 12.5381L11.2219 12.7858C10.1071 13.5858 8.75751 14.0605 7.2803 14.0605C3.54223 14.0605 0.5 11.0183 0.5 7.2803C0.5 3.54223 3.54223 0.5 7.2803 0.5C11.0183 0.5 14.0605 3.54223 14.0605 7.2803C14.0605 8.82661 13.5429 10.2438 12.668 11.382L12.4013 11.7289L12.7097 12.0392L17.1709 16.5278L17.1721 16.529C17.266 16.6229 17.3266 16.7586 17.3266 16.9235C17.3266 17.2787 17.102 17.5 16.7775 17.5C16.6038 17.5 16.4621 17.4426 16.3559 17.3365C16.3558 17.3364 16.3557 17.3363 16.3556 17.3362L11.8673 12.8389ZM7.2803 1.06006C3.84752 1.06006 1.06006 3.84752 1.06006 7.2803C1.06006 10.713 3.84752 13.5005 7.2803 13.5005C10.713 13.5005 13.5005 10.713 13.5005 7.2803C13.5005 3.84752 10.713 1.06006 7.2803 1.06006Z" fill="white" stroke="white"/>
</svg>
